<?xml version="1.0" encoding="UTF-8"?><svg id="Layer_2" xmlns="http://www.w3.org/2000/svg" viewBox="0 0 96.66 96.66"><defs><style>.cls-1{fill:#fff;}.cls-2{fill:#0fb3ee;}</style></defs><g id="Illustration"><rect class="cls-2" x="0" y="0" width="96.66" height="96.66" rx="48.33" ry="48.33"/><path class="cls-1" d="M48.33,52.61l29.3-25.08c-.6-.5-1.34-.8-2.14-.8H21.17c-.8,0-1.53.3-2.14.8l29.3,25.08Z"/><path class="cls-1" d="M79.06,66.21c.07-.32.12-.66.12-1.01V31.48l-17.55,15.02,17.43,19.71Z"/><path class="cls-1" d="M58.61,49.08l-10.29,8.8-10.29-8.8-17.83,20.18c.31.09.62.16.95.16h54.33c.33,0,.65-.07.95-.16l-17.83-20.18Z"/><path class="cls-1" d="M35.03,46.5l-17.55-15.02v33.72c0,.35.05.68.12,1.01l17.43-19.71Z"/></g></svg>