<?xml version="1.0" encoding="UTF-8"?><svg id="Layer_2" xmlns="http://www.w3.org/2000/svg" viewBox="0 0 50.12 50.12"><defs><style>.cls-1{fill:#1877f2;}.cls-2{fill:#fff;}</style></defs><g id="FACEBOOK"><path class="cls-1" d="M50.12,25.06C50.12,11.22,38.9,0,25.06,0S0,11.22,0,25.06c0,12.51,9.16,22.88,21.15,24.76v-17.51h-6.36v-7.24h6.36v-5.52c0-6.28,3.74-9.75,9.47-9.75,2.74,0,5.61.49,5.61.49v6.17h-3.16c-3.11,0-4.08,1.93-4.08,3.91v4.7h6.95l-1.11,7.24h-5.84v17.51c11.98-1.88,21.15-12.25,21.15-24.76Z"/><path class="cls-2" d="M34.82,32.31l1.11-7.24h-6.95v-4.7c0-1.98.97-3.91,4.08-3.91h3.16v-6.17s-2.87-.49-5.61-.49c-5.72,0-9.47,3.47-9.47,9.75v5.52h-6.36v7.24h6.36v17.51c1.28.2,2.58.3,3.92.3s2.64-.1,3.92-.3v-17.51h5.84Z"/></g></svg>