<svg xmlns="http://www.w3.org/2000/svg" version="1.1" xmlns:xlink="http://www.w3.org/1999/xlink" width="1024" height="1024"><svg id="SvgjsSvg1003" xmlns="http://www.w3.org/2000/svg" version="1.1" viewBox="0 0 1024 1024">
  <!-- Generator: Adobe Illustrator 29.5.1, SVG Export Plug-In . SVG Version: 2.1.0 Build 141)  -->
  <defs>
    <style>
      .st0 {
        fill: aqua;
      }

      .st1 {
        fill: #fff;
      }

      .st2 {
        fill: none;
        stroke: #000;
        stroke-width: 8px;
      }

      .st3 {
        fill: red;
      }

      .st4 {
        fill: #bf00ff;
      }

      .st5 {
        fill: #00ff80;
      }

      .st6 {
        fill: #0080ff;
      }

      .st7 {
        fill: #40ff00;
      }

      .st8 {
        fill: #4000ff;
      }

      .st9 {
        fill: #ffbf00;
      }

      .st10 {
        fill: #ff8000;
      }

      .st11 {
        fill: #ff4000;
      }

      .st12 {
        fill: #bfff00;
      }

      .st13 {
        fill: #ff0;
      }
    </style>
  </defs>
  <g id="SvgjsG1002">
    <g>
      <g>
        <path class="st4" d="M1013.8,460.7l-426.9-88.2h0l-88.4-18.2,422.1-136.6,1-.8c50.5,70,83.4,153.3,92.4,243.6h0l-.2.2Z"></path>
        <path class="st11" d="M646.8,426.2l325.7,291c-36.2,80.4-93,149.8-163.8,201.1l-135.7-412.7-26.2-79.6h0v.2Z"></path>
        <path class="st10" d="M656.6,583.9l16.5-78.1,135.7,412.7c-69.3,50.3-152.1,83.4-241.9,92.8l89.9-427.1h0l-.2-.2Z"></path>
        <path class="st8" d="M920.6,217.8l-422.1,136.6-66.8,21.6L718.2,53.9l.8-1.9c81.1,36.4,150.8,93.6,202.3,164.9l-1,.8h.2Z"></path>
        <path class="st6" d="M372.4,442.3L461.2,13.3v-2.1c17.2-1.9,34.8-2.7,52.6-2.7,73.1,0,142.6,15.7,205.3,43.8l-.8,1.9-286.6,322h0l-59.1,66.4h-.2v-.2Z"></path>
        <path class="st3" d="M972.5,717.1l-325.7-291-59.9-53.6,426.9,88.2h0c1.7,16.5,2.5,33.3,2.5,50.5,0,73.5-15.7,143.3-44,206.1h0l.2-.2Z"></path>
        <path class="st9" d="M310.6,971l288.9-323.2,57.2-63.9-89.9,427.1c-17.4,1.9-35.2,2.7-53,2.7-72.3,0-141.2-15.3-203.2-42.7h0Z"></path>
        <polygon points="673 505.8 656.6 583.9 599.5 647.8 525.3 672.1 524.9 671.3 440.9 653.9 379.9 599.4 380.1 599.2 355.4 524.2 372.4 442.3 431.7 375.9 431.7 375.9 498.3 354.3 586.9 372.6 586.9 372.6 646.8 426.2 673 505.8"></polygon>
        <path class="st13" d="M310.6,971c-80.9-35.8-150.6-92.4-202.3-162.8l416.8-136.2,74.2-24.3-288.9,323.2h.2Z"></path>
        <path class="st0" d="M355.4,524.2L218.2,106.5l-1-1.5C286.9,53.9,370.3,20.4,461,11v2.1c.2,0-88.6,429-88.6,429l-17,81.9h0v.2Z"></path>
        <path class="st12" d="M108.3,808.2c-50.9-69.3-84.6-152.5-94.3-242.6l426.9,88.2,84.2,17.4v.8c.2,0-416.6,136.2-416.6,136.2h-.2Z"></path>
        <path class="st5" d="M379.9,599.4L54.6,308.7l-.8-.4c35.8-81.3,92.8-151.4,163.6-203.2l1,1.5,137.2,417.7,24.5,75h-.2v.2Z"></path>
        <path class="st7" d="M11.1,511.2c0-72.1,15.3-140.8,42.5-202.8l.8.4,325.3,290.7,61,54.5L13.8,565.9c-1.9-18-2.9-36.2-2.9-54.7h.2Z"></path>
      </g>
      <g>
        <polyline class="st2" points="218.4 106.5 355.4 524.2 380.1 599.2"></polyline>
        <polyline class="st2" points="461.2 13.3 372.4 442.3 355.4 524.2"></polyline>
        <line class="st2" x1="431.7" y1="375.9" x2="372.4" y2="442.3"></line>
        <line class="st2" x1="718.2" y1="53.9" x2="431.7" y2="375.9"></line>
        <polyline class="st2" points="920.6 217.8 498.3 354.3 431.7 375.9 431.7 375.9"></polyline>
        <line class="st2" x1="586.9" y1="372.6" x2="498.3" y2="354.3"></line>
        <line class="st2" x1="1013.8" y1="460.7" x2="586.9" y2="372.6"></line>
        <polyline class="st2" points="973.1 717.8 972.5 717.1 646.8 426.2 586.9 372.6 586.9 372.6"></polyline>
        <polyline class="st2" points="809.3 919.9 808.7 918.2 673 505.8 646.8 426.2"></polyline>
        <polyline class="st2" points="566.4 1013.3 566.8 1011 656.6 583.9 673 505.8"></polyline>
        <polyline class="st2" points="309.3 972.5 310.6 971 599.5 647.8 656.6 583.9"></polyline>
        <polyline class="st2" points="107.2 808.7 108.3 808.2 525.3 672.1 599.5 647.8"></polyline>
        <polyline class="st2" points="13.8 565.9 14 565.9 440.9 653.9 524.9 671.3"></polyline>
        <polyline class="st2" points="54.6 308.9 379.9 599.4 440.9 653.9"></polyline>
        <path class="st2" d="M972.5,717.1c28.3-62.8,44-132.6,44-206.1s-.8-33.9-2.5-50.5c-9-90.5-41.9-173.9-92.4-243.6-51.5-71.2-121.3-128.6-202.3-164.9-62.6-28.1-132.2-43.8-205.3-43.8s-35.4.8-52.8,2.7c-90.5,9.4-174.1,42.9-243.8,94.1-71,51.9-127.8,121.9-163.6,203.2-27.4,62-42.5,130.7-42.5,202.8s1,36.7,2.9,54.7c9.8,90.1,43.4,173,94.3,242.6,51.7,70.4,121.3,126.9,202.3,162.8,62.2,27.4,130.9,42.7,203.2,42.7s35.6-1,53-2.7c89.9-9.4,172.6-42.5,241.9-92.8,70.8-51.3,127.6-120.7,163.8-201.1h-.2Z"></path>
      </g>
    </g>
    <path class="st1" d="M648.3,517.7l-185.2,106.8c-9.2,5.2-20.7-1.3-20.7-11.9v-213.9c0-10.7,11.5-17.4,20.7-11.9l185.2,106.8c9.2,5.2,9.2,18.6,0,23.9h0v.2Z"></path>
  </g>
</svg><style>@media (prefers-color-scheme: light) { :root { filter: none; } }
@media (prefers-color-scheme: dark) { :root { filter: none; } }
</style></svg>