<?xml version="1.0" encoding="UTF-8"?><svg id="Layer_2" xmlns="http://www.w3.org/2000/svg" xmlns:xlink="http://www.w3.org/1999/xlink" viewBox="0 0 96.66 96.66"><defs><style>.cls-1{fill:#fff;}.cls-2{fill:url(#linear-gradient);}</style><linearGradient id="linear-gradient" x1="913.04" y1="422.78" x2="829.4" y2="471.07" gradientTransform="translate(-398.6 919.54) rotate(-90)" gradientUnits="userSpaceOnUse"><stop offset="0" stop-color="#474b99"/><stop offset=".18" stop-color="#7b4c97"/><stop offset=".3" stop-color="#9c4e96"/><stop offset=".36" stop-color="#9f4c8f"/><stop offset=".44" stop-color="#a9477c"/><stop offset=".53" stop-color="#b93f5e"/><stop offset=".6" stop-color="#c73944"/><stop offset=".88" stop-color="#efa646"/><stop offset="1" stop-color="#f6dd53"/></linearGradient></defs><g id="Illustration"><rect class="cls-2" x="0" y="0" width="96.66" height="96.66" rx="48.33" ry="48.33"/><path class="cls-1" d="M62.05,17.47h-27.44c-9.96,0-18.07,8.11-18.07,18.07v27.44c0,9.96,8.11,18.07,18.07,18.07h27.44c9.96,0,18.07-8.11,18.07-18.07v-27.44c0-9.96-8.11-18.07-18.07-18.07ZM75.47,63.46c0,7.22-5.88,13.1-13.1,13.1h-28.08c-7.22,0-13.1-5.88-13.1-13.1v-28.08c0-7.22,5.88-13.1,13.1-13.1h28.08c7.22,0,13.1,5.88,13.1,13.1v28.08Z"/><path class="cls-1" d="M48.33,33.24c-8.92,0-16.18,7.26-16.18,16.18s7.26,16.18,16.18,16.18,16.18-7.26,16.18-16.18-7.26-16.18-16.18-16.18ZM48.33,61c-6.39,0-11.58-5.2-11.58-11.58s5.2-11.58,11.58-11.58,11.58,5.2,11.58,11.58-5.2,11.58-11.58,11.58Z"/><path class="cls-1" d="M65.73,28.68c-1.8,0-3.26,1.46-3.26,3.26s1.46,3.26,3.26,3.26,3.26-1.46,3.26-3.26-1.46-3.26-3.26-3.26Z"/></g></svg>